:FULLY-SPECIFIED
:FORCE-ALL-JOINTS-BE-3DOF
:DEGREES
259
root 9.71038 16.7182 -0.282263 8.25177 -7.54074 1.04112
lfemur -31.7308 9.04226 -27.4202
ltibia 36.0312 0 0
lfoot -12.2797 6.87945 0
ltoes -0.172547 0 0
rfemur -8.05715 -1.83185 15.9294
rtibia 61.1487 0 0
rfoot 5.45119 -8.96497 0
rtoes -15.2345 0 0
lowerback -5.66687 1.15268 -2.40447
upperback -1.95228 1.64242 1.4682
thorax 1.05435 0.829121 2.9658
lowerneck -20.4285 -4.80215 -12.8317
upperneck 18.713 -5.79014 13.2294
head 10.1199 -2.12888 6.02016
lclavicle -3.19546e-14 -2.0276e-14 0
lhumerus -36.703 -8.59092 89.2943
lradius 22.6391 0 0
lwrist -2.00751 0 0
lhand -9.41773 -22.3452 0
lfingers 7.12502 0 0
lthumb 16.5443 6.96948 0
rclavicle -3.19546e-14 -2.0276e-14 0
rhumerus -45.9701 9.67144 -86.016
rradius 39.7113 0 0
rwrist -21.7486 0 0
rhand -31.9309 -24.6003 0
rfingers 7.12502 0 0
rthumb -5.18201 -54.5169 0
260
root 9.73034 16.7423 -0.153324 8.10852 -7.38674 1.08346
lfemur -30.7709 8.93508 -27.4808
ltibia 35.5005 -0 0
lfoot -12.5613 6.8251 0.000667834
ltoes -0.298637 0 0
rfemur -9.25438 -1.90622 16.0466
rtibia 62.0107 -0 0
rfoot 3.84069 -9.34985 0.0270933
rtoes -15.2255 0 0
lowerback -5.6197 0.997511 -2.40393
upperback -1.87234 1.43405 1.52726
thorax 1.12381 0.722904 3.01327
lowerneck -20.5552 -4.73851 -12.673
upperneck 18.923 -5.70455 13.0203
head 10.1934 -2.09652 5.93598
lclavicle -2.27442e-14 -1.05356e-14 0
lhumerus -35.8573 -9.21606 89.3684
lradius 22.8045 -0 0
lwrist -1.59359 0 0
lhand -9.85619 -22.6391 0.0056238
lfingers 7.12502 0 0
lthumb 16.122 6.70777 0.00482347
rclavicle -2.27442e-14 -1.05356e-14 0
rhumerus -45.9218 9.47538 -85.7248
rradius 39.9248 -0 0
rwrist -21.7356 0 0
rhand -31.885 -24.4864 0.000228115
rfingers 7.12502 0 0
rthumb -5.1377 -54.4041 0.000218192
261
root 9.7503 16.7665 -0.0243847 7.96543 -7.23263 1.1254
lfemur -29.8112 8.82893 -27.5433
ltibia 34.9697 -0 0
lfoot -12.8429 6.77074 0.00106854
ltoes -0.424726 0 0
rfemur -10.4518 -1.97813 16.1653
rtibia 62.8728 -0 0
rfoot 2.23004 -9.73534 0.0433583
rtoes -15.2164 0 0
lowerback -5.57253 0.842342 -2.40353
upperback -1.79262 1.2256 1.58603
thorax 1.19318 0.61663 3.06061
lowerneck -20.6818 -4.67453 -12.5145
upperneck 19.1327 -5.61819 12.8116
head 10.2669 -2.06406 5.85184
lclavicle -1.35339e-14 -7.951e-16 0
lhumerus -35.011 -9.8422 89.4332
lradius 22.97 -0 0
lwrist -1.17967 0 0
lhand -10.2947 -22.933 0.00899827
lfingers 7.12502 0 0
lthumb 15.6996 6.44604 0.0077177
rclavicle -1.35339e-14 -7.951e-16 0
rhumerus -45.8746 9.27909 -85.4339
rradius 40.1383 -0 0
rwrist -21.7226 0 0
rhand -31.8391 -24.3725 0.000364985
rfingers 7.12502 0 0
rthumb -5.09339 -54.2912 0.000349107
262
root 9.77027 16.7906 0.104554 7.82251 -7.07843 1.16693
lfemur -28.8517 8.72382 -27.6075
ltibia 34.439 -0 0
lfoot -13.1244 6.71638 0.00120211
ltoes -0.550816 0 0
rfemur -11.6494 -2.04755 16.2856
rtibia 63.7348 -0 0
rfoot 0.61932 -10.1211 0.0487814
rtoes -15.2074 0 0
lowerback -5.52536 0.687172 -2.40325
upperback -1.71312 1.01706 1.6445
thorax 1.26246 0.510299 3.10783
lowerneck -20.8082 -4.61019 -12.3561
upperneck 19.342 -5.53108 12.6032
head 10.3404 -2.03149 5.76775
lclavicle -4.32355e-15 8.94535e-15 0
lhumerus -34.1636 -10.4692 89.4887
lradius 23.1354 -0 0
lwrist -0.765747 0 0
lhand -10.7332 -23.227 0.0101231
lfingers 7.12502 0 0
lthumb 15.2773 6.18429 0.00868247
rclavicle -4.32355e-15 8.94535e-15 0
rhumerus -45.8283 9.08255 -85.1434
rradius 40.3518 -0 0
rwrist -21.7096 0 0
rhand -31.7932 -24.2586 0.000410608
rfingers 7.12502 0 0
rthumb -5.04908 -54.1784 0.000392745
263
root 9.79023 16.8148 0.233494 7.67975 -6.92411 1.20806
lfemur -27.8923 8.61979 -27.6734
ltibia 33.9082 -0 0
lfoot -13.406 6.66203 0.00106854
ltoes -0.676906 0 0
rfemur -12.8473 -2.11443 16.4072
rtibia 64.5968 -0 0
rfoot -0.991401 -10.5069 0.0433583
rtoes -15.1984 0 0
lowerback -5.4782 0.532002 -2.40309
upperback -1.63383 0.808445 1.70268
thorax 1.33166 0.403911 3.15491
lowerneck -20.9343 -4.54551 -12.1979
upperneck 19.551 -5.44321 12.3952
head 10.4138 -1.99881 5.6837
lclavicle 4.8868e-15 1.86858e-14 0
lhumerus -33.3152 -11.097 89.5349
lradius 23.3008 -0 0
lwrist -0.351826 0 0
lhand -11.1717 -23.521 0.00899827
lfingers 7.12502 0 0
lthumb 14.8549 5.92253 0.0077177
rclavicle 4.8868e-15 1.86858e-14 0
rhumerus -45.7832 8.88579 -84.8531
rradius 40.5653 -0 0
rwrist -21.6966 0 0
rhand -31.7473 -24.1447 0.000364985
rfingers 7.12502 0 0
rthumb -5.00476 -54.0655 0.000349107
264
root 9.81019 16.8389 0.362433 7.53714 -6.7697 1.2488
lfemur -26.933 8.51686 -27.7411
ltibia 33.3774 -0 0
lfoot -13.6876 6.60767 0.000667834
ltoes -0.802995 0 0
rfemur -14.0453 -2.17876 16.5302
rtibia 65.4589 -0 0
rfoot -2.60205 -10.8924 0.0270933
rtoes -15.1893 0 0
lowerback -5.43103 0.376832 -2.40307
upperback -1.55476 0.599749 1.76057
thorax 1.40076 0.297466 3.20186
lowerneck -21.0603 -4.48048 -12.0398
upperneck 19.7596 -5.35459 12.1875
head 10.4871 -1.96602 5.59969
lclavicle 1.40971e-14 2.84262e-14 0
lhumerus -32.4653 -11.7254 89.5718
lradius 23.4663 -0 0
lwrist 0.062095 0 0
lhand -11.6101 -23.8149 0.0056238
lfingers 7.12502 0 0
lthumb 14.4325 5.6608 0.00482347
rclavicle 1.40971e-14 2.84262e-14 0
rhumerus -45.739 8.68881 -84.5632
rradius 40.7788 -0 0
rwrist -21.6836 0 0
rhand -31.7014 -24.0308 0.000228115
rfingers 7.12502 0 0
rthumb -4.96045 -53.9526 0.000218192
265
root 9.83015 16.8631 0.491372 7.39469 -6.61519 1.28913
lfemur -25.9739 8.41507 -27.8105
ltibia 32.8467 0 0
lfoot -13.9692 6.55332 0
ltoes -0.929085 0 0
rfemur -15.2435 -2.24051 16.6546
rtibia 66.3209 0 0
rfoot -4.21255 -11.2773 0
rtoes -15.1803 0 0
lowerback -5.38387 0.221662 -2.40317
upperback -1.47591 0.390974 1.81817
thorax 1.46978 0.190964 3.24869
lowerneck -21.1861 -4.4151 -11.8819
upperneck 19.9679 -5.26521 11.9802
head 10.5604 -1.93313 5.51573
lclavicle 2.33075e-14 3.81667e-14 0
lhumerus -31.6139 -12.3542 89.5991
lradius 23.6317 0 0
lwrist 0.476016 0 0
lhand -12.0486 -24.1088 0
lfingers 7.12502 0 0
lthumb 14.0102 5.39909 0
rclavicle 2.33075e-14 3.81667e-14 0
rhumerus -45.6959 8.49161 -84.2736
rradius 40.9923 0 0
rwrist -21.6706 0 0
rhand -31.6555 -23.9169 0
rfingers 7.12502 0 0
rthumb -4.91614 -53.8398 0
266
root 9.84732 16.872 0.61742 7.19962 -6.42588 1.37889
lfemur -24.9815 8.20674 -27.8943
ltibia 32.3559 -0 0
lfoot -14.3541 6.65057 -0.00163342
ltoes -0.932068 0 0
rfemur -16.2877 -2.1376 16.7508
rtibia 66.3009 -0 0
rfoot -5.85209 -11.2229 -0.00389541
rtoes -15.0645 0 0
lowerback -5.35291 0.061626 -2.44711
upperback -1.33934 0.179082 1.84047
thorax 1.60956 0.0807377 3.28166
lowerneck -21.3126 -4.32902 -11.8499
upperneck 20.155 -5.15081 11.9614
head 10.6348 -1.87728 5.52978
lclavicle 2.10215e-14 2.63721e-14 0
lhumerus -30.5922 -12.6722 89.4084
lradius 23.688 -0 0
lwrist 0.557671 0 0
lhand -12.1644 -24.1419 0.000167185
lfingers 7.12502 0 0
lthumb 13.8986 5.37351 0.00012458
rclavicle 2.10215e-14 2.63721e-14 0
rhumerus -45.6472 8.39156 -84.0828
rradius 41.1784 -0 0
rwrist -21.8109 0 0
rhand -31.2557 -23.6566 0.00454145
rfingers 7.12502 0 0
rthumb -4.5301 -53.5863 0.0042705
267
root 9.86449 16.881 0.743468 7.00492 -6.23627 1.46796
lfemur -23.9893 7.99987 -27.9817
ltibia 31.8651 -0 0
lfoot -14.739 6.74784 -0.0026135
ltoes -0.935051 0 0
rfemur -17.3318 -2.03296 16.8451
rtibia 66.2808 -0 0
rfoot -7.49163 -11.1685 -0.00623393
rtoes -14.9486 0 0
lowerback -5.32182 -0.0983862 -2.49114
upperback -1.20286 -0.0328634 1.86226
thorax 1.74927 -0.0295686 3.31436
lowerneck -21.439 -4.24287 -11.8181
upperneck 20.3421 -5.03634 11.943
head 10.7092 -1.82145 5.5439
lclavicle 1.87355e-14 1.45776e-14 0
lhumerus -29.5681 -12.9869 89.2117
lradius 23.7443 -0 0
lwrist 0.639325 0 0
lhand -12.2802 -24.175 0.000267497
lfingers 7.12502 0 0
lthumb 13.787 5.34793 0.000199328
rclavicle 1.87355e-14 1.45776e-14 0
rhumerus -45.5989 8.29136 -83.8921
rradius 41.3645 -0 0
rwrist -21.9512 0 0
rhand -30.856 -23.3962 0.00726644
rfingers 7.12502 0 0
rthumb -4.14405 -53.3328 0.00683292
268
root 9.88166 16.8899 0.869516 6.81059 -6.04636 1.55635
lfemur -22.9973 7.79453 -28.0727
ltibia 31.3743 -0 0
lfoot -15.1238 6.8451 -0.0029402
ltoes -0.938033 0 0
rfemur -18.3755 -1.92661 16.9374
rtibia 66.2608 -0 0
rfoot -9.13118 -11.114 -0.00701365
rtoes -14.8328 0 0
lowerback -5.29061 -0.258374 -2.53525
upperback -1.06645 -0.24486 1.88355
thorax 1.88892 -0.139954 3.3468
lowerneck -21.5653 -4.15666 -11.7864
upperneck 20.5291 -4.92182 11.9249
head 10.7835 -1.76563 5.55809
lclavicle 1.64494e-14 2.783e-15 0
lhumerus -28.5416 -13.2981 89.009
lradius 23.8006 -0 0
lwrist 0.720979 0 0
lhand -12.3961 -24.2081 0.000300934
lfingers 7.12502 0 0
lthumb 13.6754 5.32235 0.000224244
rclavicle 1.64494e-14 2.783e-15 0
rhumerus -45.5509 8.19099 -83.7015
rradius 41.5507 -0 0
rwrist -22.0915 0 0
rhand -30.4562 -23.1359 0.00817479
rfingers 7.12502 0 0
rthumb -3.75799 -53.0793 0.00768707
269
root 9.89883 16.8988 0.995564 6.61661 -5.85615 1.64407
lfemur -22.0054 7.59079 -28.1672
ltibia 30.8835 -0 0
lfoot -15.5087 6.94237 -0.0026135
ltoes -0.941016 0 0
rfemur -19.419 -1.81861 17.0278
rtibia 66.2408 -0 0
rfoot -10.7707 -11.0595 -0.00623393
rtoes -14.717 0 0
lowerback -5.25927 -0.418339 -2.57945
upperback -0.930118 -0.456906 1.90433
thorax 2.02851 -0.250419 3.37896
lowerneck -21.6916 -4.07037 -11.755
upperneck 20.716 -4.80723 11.9072
head 10.858 -1.70984 5.57235
lclavicle 1.41634e-14 -9.01157e-15 0
lhumerus -27.5127 -13.6057 88.8004
lradius 23.8569 -0 0
lwrist 0.802634 0 0
lhand -12.5119 -24.2411 0.000267497
lfingers 7.12502 0 0
lthumb 13.5637 5.29677 0.000199328
rclavicle 1.41634e-14 -9.01157e-15 0
rhumerus -45.5033 8.09047 -83.5111
rradius 41.7368 -0 0
rwrist -22.2318 0 0
rhand -30.0564 -22.8755 0.00726644
rfingers 7.12502 0 0
rthumb -3.37193 -52.8257 0.00683292
270
root 9.916 16.9078 1.12161 6.423 -5.66564 1.73111
lfemur -21.0136 7.38869 -28.2651
ltibia 30.3927 -0 0
lfoot -15.8936 7.03964 -0.00163342
ltoes -0.943999 0 0
rfemur -20.4623 -1.70897 17.1162
rtibia 66.2207 -0 0
rfoot -12.4103 -11.0051 -0.00389541
rtoes -14.6011 0 0
lowerback -5.22781 -0.578278 -2.62374
upperback -0.793859 -0.669001 1.92461
thorax 2.16804 -0.360961 3.41085
lowerneck -21.8178 -3.98401 -11.7237
upperneck 20.9028 -4.69259 11.8899
head 10.9324 -1.65406 5.58668
lclavicle 1.18774e-14 -2.08061e-14 0
lhumerus -26.4813 -13.9096 88.5858
lradius 23.9132 -0 0
lwrist 0.884289 0 0
lhand -12.6277 -24.2742 0.000167185
lfingers 7.12502 0 0
lthumb 13.4521 5.27119 0.00012458
rclavicle 1.18774e-14 -2.08061e-14 0
rhumerus -45.456 7.98979 -83.3208
rradius 41.9229 -0 0
rwrist -22.3721 0 0
rhand -29.6567 -22.6151 0.00454145
rfingers 7.12502 0 0
rthumb -2.98588 -52.5722 0.0042705
271
root 9.93317 16.9167 1.24766 6.22974 -5.47485 1.81747
lfemur -20.022 7.18831 -28.3666
ltibia 29.9019 0 0
lfoot -16.2785 7.13689 0
ltoes -0.946982 0 0
rfemur -21.5054 -1.59775 17.2026
rtibia 66.2007 0 0
rfoot -14.0498 -10.9507 0
rtoes -14.4853 0 0
lowerback -5.19623 -0.738194 -2.66812
upperback -0.657669 -0.881144 1.94439
thorax 2.30751 -0.471581 3.44248
lowerneck -21.944 -3.89759 -11.6927
upperneck 21.0896 -4.5779 11.873
head 11.0068 -1.5983 5.60109
lclavicle 9.59136e-15 -3.26007e-14 0
lhumerus -25.4473 -14.2097 88.3653
lradius 23.9695 0 0
lwrist 0.965943 0 0
lhand -12.7435 -24.3073 0
lfingers 7.12502 0 0
lthumb 13.3405 5.24561 0
rclavicle 9.59136e-15 -3.26007e-14 0
rhumerus -45.4091 7.88896 -83.1306
rradius 42.109 0 0
rwrist -22.5124 0 0
rhand -29.2569 -22.3548 0
rfingers 7.12502 0 0
rthumb -2.59984 -52.3187 0
